<svg xmlns="http://www.w3.org/2000/svg" xmlns:xlink="http://www.w3.org/1999/xlink" width="201.608" height="50.793" viewBox="0 0 201.608 50.793">
  <defs>
    <clipPath id="clip-path">
      <rect id="Rectangle_1" data-name="Rectangle 1" width="201.608" height="50.793" fill="none"/>
    </clipPath>
  </defs>
  <g id="Artwork_4" data-name="Artwork 4" transform="translate(60.62 28.877)">
    <g id="Group_2" data-name="Group 2" transform="translate(-60.62 -28.877)">
      <g id="Group_1" data-name="Group 1" clip-path="url(#clip-path)">
        <path id="Path_1" data-name="Path 1" d="M34,78.243V97.876H30.581V78.243Z" transform="translate(-23.271 -59.541)"/>
        <path id="Path_2" data-name="Path 2" d="M79.766,97.856a5.6,5.6,0,0,1,2.9-.722,4.966,4.966,0,0,1,3.816,1.472,5.915,5.915,0,0,1,1.375,4.193v9.452H84.44v-8.394a4.055,4.055,0,0,0-.782-2.686,2.733,2.733,0,0,0-2.205-.923,2.978,2.978,0,0,0-2.275.937,3.844,3.844,0,0,0-.88,2.728v8.339H74.876v-8.422a4.006,4.006,0,0,0-.782-2.658,2.732,2.732,0,0,0-2.205-.923,2.906,2.906,0,0,0-2.289.98,3.958,3.958,0,0,0-.865,2.714v8.311H65.312V97.443h3.422V99.71a9.8,9.8,0,0,1,.785-.962,5.492,5.492,0,0,1,.967-.821,4.647,4.647,0,0,1,1.234-.58,5.148,5.148,0,0,1,1.528-.213,4.848,4.848,0,0,1,2.7.722,4.767,4.767,0,0,1,1.7,1.91A7.3,7.3,0,0,1,79.766,97.856Z" transform="translate(-49.701 -73.917)"/>
        <path id="Path_3" data-name="Path 3" d="M191.522,108.128a7.382,7.382,0,0,1-1.543,2.426,6.419,6.419,0,0,1-2.215,1.5,6.787,6.787,0,0,1-2.566.5,5.445,5.445,0,0,1-3.029-.785,7.8,7.8,0,0,1-1.992-1.823l.028,6.788h-3.422v-19.3H180.2v2.468a7.381,7.381,0,0,1,2.014-1.977,5.3,5.3,0,0,1,2.994-.8,6.651,6.651,0,0,1,2.546.505,6.446,6.446,0,0,1,2.2,1.5,7.58,7.58,0,0,1,1.553,2.426,8.579,8.579,0,0,1,.588,3.282A8.752,8.752,0,0,1,191.522,108.128Zm-3.183-5.259a4.551,4.551,0,0,0-.911-1.5,4.043,4.043,0,0,0-2.987-1.29,4.154,4.154,0,0,0-1.655.337,4.034,4.034,0,0,0-1.374.968,4.812,4.812,0,0,0-.94,1.5,5.675,5.675,0,0,0,0,3.926,4.81,4.81,0,0,0,.94,1.5,4.037,4.037,0,0,0,1.374.968,4.154,4.154,0,0,0,1.655.337,4.045,4.045,0,0,0,2.987-1.29,4.55,4.55,0,0,0,.911-1.5,5.977,5.977,0,0,0,0-3.955Z" transform="translate(-134.528 -73.917)"/>
        <path id="Path_4" data-name="Path 4" d="M256.222,95.2V74.722h3.422V95.2Z" transform="translate(-194.979 -56.862)"/>
        <path id="Path_5" data-name="Path 5" d="M290.409,108.844a4.21,4.21,0,0,0,2.8.968,4.96,4.96,0,0,0,2.188-.449,7.1,7.1,0,0,0,1.823-1.318l1.991,1.767a8.2,8.2,0,0,1-2.538,2.019,7.611,7.611,0,0,1-3.52.757,7.9,7.9,0,0,1-2.987-.561,7.165,7.165,0,0,1-4.025-4,8.138,8.138,0,0,1-.589-3.155,8.373,8.373,0,0,1,.533-3,7.531,7.531,0,0,1,1.5-2.454,7.241,7.241,0,0,1,2.286-1.669,6.8,6.8,0,0,1,2.917-.617,7.037,7.037,0,0,1,3.1.645,6.378,6.378,0,0,1,2.216,1.739,7.555,7.555,0,0,1,1.332,2.552,10.351,10.351,0,0,1,.449,3.057q0,.225-.014.449t-.042.477H288.951A4.468,4.468,0,0,0,290.409,108.844Zm6.114-5.035a5.808,5.808,0,0,0-.365-1.529,3.918,3.918,0,0,0-.757-1.234,3.6,3.6,0,0,0-1.136-.827,3.5,3.5,0,0,0-1.5-.309,3.421,3.421,0,0,0-2.594,1.08,4.875,4.875,0,0,0-1.248,2.819Z" transform="translate(-217.302 -73.917)"/>
        <path id="Path_6" data-name="Path 6" d="M374.284,97.856a5.6,5.6,0,0,1,2.9-.722A4.966,4.966,0,0,1,381,98.606a5.916,5.916,0,0,1,1.375,4.193v9.452h-3.422v-8.394a4.055,4.055,0,0,0-.782-2.686,2.733,2.733,0,0,0-2.205-.923,2.979,2.979,0,0,0-2.276.937,3.844,3.844,0,0,0-.879,2.728v8.339h-3.422v-8.422a4.007,4.007,0,0,0-.782-2.658,2.732,2.732,0,0,0-2.205-.923,2.906,2.906,0,0,0-2.289.98,3.957,3.957,0,0,0-.865,2.714v8.311H359.83V97.443h3.422V99.71a9.769,9.769,0,0,1,.785-.962,5.5,5.5,0,0,1,.967-.821,4.65,4.65,0,0,1,1.234-.58,5.15,5.15,0,0,1,1.528-.213,4.846,4.846,0,0,1,2.7.722,4.766,4.766,0,0,1,1.7,1.91A7.294,7.294,0,0,1,374.284,97.856Z" transform="translate(-273.822 -73.917)"/>
        <path id="Path_7" data-name="Path 7" d="M472.752,108.844a4.211,4.211,0,0,0,2.8.968,4.962,4.962,0,0,0,2.188-.449,7.1,7.1,0,0,0,1.823-1.318l1.991,1.767a8.2,8.2,0,0,1-2.538,2.019,7.612,7.612,0,0,1-3.52.757,7.9,7.9,0,0,1-2.987-.561,7.164,7.164,0,0,1-4.025-4,8.138,8.138,0,0,1-.589-3.155,8.379,8.379,0,0,1,.533-3,7.532,7.532,0,0,1,1.5-2.454,7.244,7.244,0,0,1,2.286-1.669,6.8,6.8,0,0,1,2.917-.617,7.038,7.038,0,0,1,3.1.645,6.378,6.378,0,0,1,2.216,1.739,7.549,7.549,0,0,1,1.332,2.552,10.35,10.35,0,0,1,.449,3.057q0,.225-.014.449t-.042.477H471.294A4.468,4.468,0,0,0,472.752,108.844Zm6.114-5.035a5.819,5.819,0,0,0-.365-1.529,3.922,3.922,0,0,0-.757-1.234,3.607,3.607,0,0,0-1.136-.827,3.5,3.5,0,0,0-1.5-.309,3.421,3.421,0,0,0-2.594,1.08,4.876,4.876,0,0,0-1.248,2.819Z" transform="translate(-356.061 -73.917)"/>
        <path id="Path_8" data-name="Path 8" d="M545.6,112.251h-3.422V97.443H545.6v2.324a8.28,8.28,0,0,1,.8-1,5.191,5.191,0,0,1,1.007-.835,5.123,5.123,0,0,1,1.259-.58,5.231,5.231,0,0,1,1.552-.213,4.929,4.929,0,0,1,3.888,1.543,6.024,6.024,0,0,1,1.37,4.151v9.424h-3.422v-8.394a3.932,3.932,0,0,0-.82-2.672,2.921,2.921,0,0,0-2.322-.937,3.149,3.149,0,0,0-2.391.965,3.763,3.763,0,0,0-.918,2.7Z" transform="translate(-412.582 -73.917)"/>
        <path id="Path_9" data-name="Path 9" d="M615.3,95.653a1.844,1.844,0,0,0,.477,1.421,1.921,1.921,0,0,0,1.346.436,4.647,4.647,0,0,0,2.1-.505v2.777a5.873,5.873,0,0,1-1.374.561,6.518,6.518,0,0,1-1.683.2,6.269,6.269,0,0,1-1.718-.225,3.514,3.514,0,0,1-1.372-.731,3.239,3.239,0,0,1-.891-1.335,5.92,5.92,0,0,1-.311-2.066V88.367H610V85.478h1.879V81.411H615.3v4.067h3.983v2.889H615.3Z" transform="translate(-464.193 -61.952)"/>
        <path id="Path_10" data-name="Path 10" d="M707.149,28.317c-.05-.027-.1-.054-.153-.079-.019-.009-.039-.016-.057-.025-.083-.039-.169-.076-.255-.109-.033-.013-.066-.027-.1-.04-.12-.044-.242-.082-.367-.115l-.009,0-.055-.011c-.1-.025-.206-.046-.311-.064-.042-.007-.085-.012-.128-.018-.087-.011-.175-.021-.264-.027l-.14-.008c-.092,0-.185,0-.278,0-.042,0-.084,0-.126,0-.135.007-.272.018-.409.038L683,30.88c-.154.022-.305.053-.456.089l-.129.034q-.172.046-.34.1l-.114.039c-.137.051-.273.106-.406.169l-.018.009c-.043.021-.084.045-.127.066-.1.053-.208.107-.31.166-.054.032-.106.067-.159.1s-.132.08-.2.124c-.015.011-.029.024-.044.034a6.055,6.055,0,0,0-.531.42c-.01.009-.021.016-.031.024-.027.024-.051.053-.077.078q-.187.175-.361.365c-.024.026-.05.048-.074.075s-.036.047-.055.069q-.186.216-.353.449c-.014.019-.03.036-.044.056l-.008.013a6.541,6.541,0,0,0-.361.586c-.012.022-.027.041-.039.063-.034.062-.062.127-.094.19s-.055.108-.08.163c-.054.115-.1.233-.149.351-.016.039-.033.078-.048.117l-.009.021c-.033.089-.058.181-.087.272-.023.074-.05.147-.071.223-.029.1-.05.211-.074.317-.016.07-.035.139-.048.21-.022.12-.036.242-.051.363-.007.059-.019.117-.024.176-.017.181-.027.364-.027.547l-.043,23.2a4.674,4.674,0,0,0,2.323,4.225l2.554,1.389a4.674,4.674,0,0,1-2.323-4.225l.043-23.2q0-.275.027-.547c.006-.059.017-.117.024-.176.015-.121.029-.243.052-.363.013-.071.032-.14.048-.21.024-.106.045-.213.074-.317.021-.075.047-.147.07-.22.031-.1.06-.2.1-.295.014-.039.032-.076.047-.115.047-.119.1-.237.149-.353.025-.055.053-.109.08-.163q.064-.128.133-.254a6.525,6.525,0,0,1,.361-.586c.017-.024.035-.046.052-.069.111-.155.23-.3.354-.449.042-.049.085-.1.128-.144q.173-.19.361-.365c.036-.034.071-.07.108-.1a6.028,6.028,0,0,1,.532-.42c.078-.055.158-.107.239-.158.053-.034.106-.069.16-.1.1-.06.206-.114.31-.167.042-.022.084-.046.126-.066.139-.066.28-.124.424-.178.038-.014.076-.026.115-.039q.168-.058.339-.1c.043-.012.086-.024.129-.034.15-.036.3-.067.456-.089l21.5-3.021c.138-.019.274-.031.409-.038.043,0,.085,0,.128,0,.093,0,.185,0,.277,0l.141.008c.088.006.176.016.262.027.043.006.086.011.129.018.1.017.207.039.309.063l.065.014c.125.033.247.071.367.115.034.012.066.027.1.04.086.034.172.07.255.11s.141.066.21.1Z" transform="translate(-515.914 -21.168)" fill="#2c258e"/>
        <path id="Path_11" data-name="Path 11" d="M714.472,33.305a4.41,4.41,0,0,1,4.975,4.684l-.043,23.2a6.209,6.209,0,0,1-4.995,6.085l-21.5,3.021a4.41,4.41,0,0,1-4.975-4.684l.043-23.2a6.209,6.209,0,0,1,4.995-6.085Z" transform="translate(-523.504 -25.31)" fill="#5f33fa"/>
        <path id="Path_12" data-name="Path 12" d="M688.3,66l.043-23.235a6.227,6.227,0,0,1,5.026-6.094L715,33.643a4.3,4.3,0,0,1,2.615.438,4.212,4.212,0,0,0-3.144-.775l-21.5,3.021a6.209,6.209,0,0,0-4.995,6.085l-.043,23.2a4.855,4.855,0,0,0,1.472,3.609A4.95,4.95,0,0,1,688.3,66Z" transform="translate(-523.504 -25.31)" fill="#b2a2f5"/>
        <path id="Path_13" data-name="Path 13" d="M721.937,64.147l3.759-.517V83.081l-4,.6ZM707.413,81.419l1.618-4.058-.011,0,2.637-6.75,2.07,6.066-.014,0,1.277,3.62h0l1.516,4.164,4.179-.629-7.019-18.689-3.464.477-8.774,21.109,4.075-.613,1.909-4.7Z" transform="translate(-533.772 -48.421)" fill="#fff"/>
      </g>
    </g>
  </g>
</svg>
